<mxfile host="app.diagrams.net" agent="Mozilla/5.0 (Windows NT 10.0; Win64; x64) AppleWebKit/537.36 (KHTML, like Gecko) Chrome/138.0.0.0 Safari/537.36" scale="1" border="0" version="28.0.6">
  <diagram name="Page-1" id="O7tJ_XTMT47j3ZjIrFe9">
    <mxGraphModel dx="2515" dy="823" grid="1" gridSize="10" guides="1" tooltips="1" connect="1" arrows="1" fold="1" page="1" pageScale="1" pageWidth="850" pageHeight="1100" math="0" shadow="0">
      <root>
        <mxCell id="0" />
        <mxCell id="1" parent="0" />
        <mxCell id="7uGA9xIpv3SkZYCvHiwO-1" style="edgeStyle=orthogonalEdgeStyle;shape=connector;rounded=0;orthogonalLoop=1;jettySize=auto;html=1;entryX=0;entryY=0.5;entryDx=0;entryDy=0;strokeColor=default;align=center;verticalAlign=middle;fontFamily=Helvetica;fontSize=11;fontColor=default;labelBackgroundColor=default;endArrow=classic;" parent="1" source="bB8MIb_X-hNjf2Zx4OUO-3" target="AywKRoo6U0t3aQPqyUou-1" edge="1">
          <mxGeometry relative="1" as="geometry">
            <Array as="points">
              <mxPoint x="-273" y="340" />
              <mxPoint x="-273" y="210" />
              <mxPoint x="-240" y="210" />
              <mxPoint x="-240" y="310" />
            </Array>
          </mxGeometry>
        </mxCell>
        <mxCell id="bB8MIb_X-hNjf2Zx4OUO-3" value="Schema" style="strokeWidth=2;html=1;shape=mxgraph.flowchart.document2;whiteSpace=wrap;size=0.25;fillColor=#E1D5E7;strokeColor=#9673A6;" parent="1" vertex="1">
          <mxGeometry x="-440" y="310" width="100" height="60" as="geometry" />
        </mxCell>
        <mxCell id="bB8MIb_X-hNjf2Zx4OUO-69" value="Processes" style="rounded=0;whiteSpace=wrap;html=1;fillColor=#dae8fc;strokeColor=#6c8ebf;" parent="1" vertex="1">
          <mxGeometry x="445" y="205" width="120" height="60" as="geometry" />
        </mxCell>
        <mxCell id="bB8MIb_X-hNjf2Zx4OUO-70" value="Temporary files" style="rounded=0;whiteSpace=wrap;html=1;fillColor=#f8cecc;strokeColor=#b85450;" parent="1" vertex="1">
          <mxGeometry x="445" y="285" width="120" height="60" as="geometry" />
        </mxCell>
        <mxCell id="bB8MIb_X-hNjf2Zx4OUO-71" value="Input files" style="rounded=0;whiteSpace=wrap;html=1;fillColor=#e1d5e7;strokeColor=#9673a6;" parent="1" vertex="1">
          <mxGeometry x="445" y="125" width="120" height="60" as="geometry" />
        </mxCell>
        <mxCell id="bB8MIb_X-hNjf2Zx4OUO-72" value="Output files" style="rounded=0;whiteSpace=wrap;html=1;fillColor=#d5e8d4;strokeColor=#82b366;" parent="1" vertex="1">
          <mxGeometry x="445" y="365" width="120" height="60" as="geometry" />
        </mxCell>
        <mxCell id="bB8MIb_X-hNjf2Zx4OUO-73" value="Color description:" style="text;html=1;align=center;verticalAlign=middle;resizable=0;points=[];autosize=1;strokeColor=none;fillColor=none;" parent="1" vertex="1">
          <mxGeometry x="390" y="90" width="110" height="30" as="geometry" />
        </mxCell>
        <mxCell id="e6oakoh6wWJwOmx6xRXs-11" style="edgeStyle=orthogonalEdgeStyle;rounded=0;orthogonalLoop=1;jettySize=auto;html=1;exitX=1;exitY=0.5;exitDx=0;exitDy=0;entryX=0;entryY=0.5;entryDx=0;entryDy=0;" parent="1" source="AywKRoo6U0t3aQPqyUou-1" target="rOO02G2cLJtOcCMyOPAY-16" edge="1">
          <mxGeometry relative="1" as="geometry" />
        </mxCell>
        <mxCell id="AywKRoo6U0t3aQPqyUou-1" value="Calculate the frequencies of the loci in the genomes" style="rounded=1;whiteSpace=wrap;html=1;absoluteArcSize=1;arcSize=14;strokeWidth=2;fillColor=#dae8fc;strokeColor=#6c8ebf;" parent="1" vertex="1">
          <mxGeometry x="-205" y="260" width="100" height="100" as="geometry" />
        </mxCell>
        <mxCell id="7uGA9xIpv3SkZYCvHiwO-4" style="edgeStyle=orthogonalEdgeStyle;shape=connector;rounded=0;orthogonalLoop=1;jettySize=auto;html=1;entryX=0;entryY=0.5;entryDx=0;entryDy=0;strokeColor=default;align=center;verticalAlign=middle;fontFamily=Helvetica;fontSize=11;fontColor=default;labelBackgroundColor=default;endArrow=classic;" parent="1" source="8VYAM4Ftvr8Oti2O68CI-1" target="AywKRoo6U0t3aQPqyUou-1" edge="1">
          <mxGeometry relative="1" as="geometry">
            <Array as="points">
              <mxPoint x="-273" y="74" />
              <mxPoint x="-273" y="210" />
              <mxPoint x="-240" y="210" />
              <mxPoint x="-240" y="310" />
            </Array>
          </mxGeometry>
        </mxCell>
        <mxCell id="8VYAM4Ftvr8Oti2O68CI-1" value="AlleleCall directory for second schema" style="strokeWidth=2;html=1;shape=mxgraph.flowchart.document2;whiteSpace=wrap;size=0.25;fillColor=#E1D5E7;strokeColor=#9673A6;" parent="1" vertex="1">
          <mxGeometry x="-440" y="30" width="100" height="87.5" as="geometry" />
        </mxCell>
        <mxCell id="7uGA9xIpv3SkZYCvHiwO-3" style="edgeStyle=orthogonalEdgeStyle;shape=connector;rounded=0;orthogonalLoop=1;jettySize=auto;html=1;entryX=0;entryY=0.5;entryDx=0;entryDy=0;strokeColor=default;align=center;verticalAlign=middle;fontFamily=Helvetica;fontSize=11;fontColor=default;labelBackgroundColor=default;endArrow=classic;" parent="1" source="gcIUV1_1aNecbG4eycyw-1" target="0gzeqC3L0OKQvXUgxYPZ-8" edge="1">
          <mxGeometry relative="1" as="geometry">
            <Array as="points">
              <mxPoint x="-273" y="160" />
              <mxPoint x="-273" y="210" />
              <mxPoint x="-240" y="210" />
              <mxPoint x="-240" y="120" />
            </Array>
          </mxGeometry>
        </mxCell>
        <mxCell id="gcIUV1_1aNecbG4eycyw-1" value="Second Schema" style="strokeWidth=2;html=1;shape=mxgraph.flowchart.document2;whiteSpace=wrap;size=0.25;fillColor=#E1D5E7;strokeColor=#9673A6;" parent="1" vertex="1">
          <mxGeometry x="-440" y="130" width="100" height="60" as="geometry" />
        </mxCell>
        <mxCell id="gcIUV1_1aNecbG4eycyw-7" value="Run_mode schema" style="text;html=1;align=center;verticalAlign=middle;resizable=0;points=[];autosize=1;strokeColor=#EA6B66;fillColor=none;" parent="1" vertex="1">
          <mxGeometry x="-610" y="247.5" width="130" height="30" as="geometry" />
        </mxCell>
        <mxCell id="gcIUV1_1aNecbG4eycyw-8" value="Run_mode schema_vs_schema" style="text;html=1;align=center;verticalAlign=middle;resizable=0;points=[];autosize=1;strokeColor=#A9C4EB;fillColor=none;" parent="1" vertex="1">
          <mxGeometry x="-660" y="20" width="190" height="30" as="geometry" />
        </mxCell>
        <mxCell id="7uGA9xIpv3SkZYCvHiwO-2" style="edgeStyle=orthogonalEdgeStyle;shape=connector;rounded=0;orthogonalLoop=1;jettySize=auto;html=1;entryX=0;entryY=0.5;entryDx=0;entryDy=0;strokeColor=default;align=center;verticalAlign=middle;fontFamily=Helvetica;fontSize=11;fontColor=default;labelBackgroundColor=default;endArrow=classic;" parent="1" source="QVrgOiSnQnu7yXSWOsoL-1" target="AywKRoo6U0t3aQPqyUou-1" edge="1">
          <mxGeometry relative="1" as="geometry">
            <Array as="points">
              <mxPoint x="-273" y="262" />
              <mxPoint x="-273" y="210" />
              <mxPoint x="-240" y="210" />
              <mxPoint x="-240" y="310" />
            </Array>
          </mxGeometry>
        </mxCell>
        <mxCell id="QVrgOiSnQnu7yXSWOsoL-1" value="AlleleCall directory" style="strokeWidth=2;html=1;shape=mxgraph.flowchart.document2;whiteSpace=wrap;size=0.25;fillColor=#E1D5E7;strokeColor=#9673A6;" parent="1" vertex="1">
          <mxGeometry x="-440" y="230" width="100" height="65" as="geometry" />
        </mxCell>
        <mxCell id="0gzeqC3L0OKQvXUgxYPZ-1" value="Run BLASTp" style="rounded=1;whiteSpace=wrap;html=1;absoluteArcSize=1;arcSize=14;strokeWidth=2;fillColor=#dae8fc;strokeColor=#6c8ebf;" parent="1" vertex="1">
          <mxGeometry x="-15" y="70" width="100" height="100" as="geometry" />
        </mxCell>
        <mxCell id="0gzeqC3L0OKQvXUgxYPZ-10" style="edgeStyle=orthogonalEdgeStyle;shape=connector;rounded=0;orthogonalLoop=1;jettySize=auto;html=1;entryX=0;entryY=0.5;entryDx=0;entryDy=0;strokeColor=default;align=center;verticalAlign=middle;fontFamily=Helvetica;fontSize=11;fontColor=default;labelBackgroundColor=default;endArrow=classic;" parent="1" source="0gzeqC3L0OKQvXUgxYPZ-8" target="0gzeqC3L0OKQvXUgxYPZ-1" edge="1">
          <mxGeometry relative="1" as="geometry" />
        </mxCell>
        <mxCell id="0gzeqC3L0OKQvXUgxYPZ-8" value="Translate loci sequences" style="rounded=1;whiteSpace=wrap;html=1;absoluteArcSize=1;arcSize=14;strokeWidth=2;fillColor=#dae8fc;strokeColor=#6c8ebf;" parent="1" vertex="1">
          <mxGeometry x="-205" y="70" width="100" height="100" as="geometry" />
        </mxCell>
        <mxCell id="rOO02G2cLJtOcCMyOPAY-4" style="edgeStyle=orthogonalEdgeStyle;rounded=0;orthogonalLoop=1;jettySize=auto;html=1;entryX=0;entryY=0.5;entryDx=0;entryDy=0;exitX=1;exitY=0.5;exitDx=0;exitDy=0;" parent="1" source="0gzeqC3L0OKQvXUgxYPZ-1" target="rOO02G2cLJtOcCMyOPAY-7" edge="1">
          <mxGeometry relative="1" as="geometry">
            <mxPoint x="381.25" y="250" as="sourcePoint" />
          </mxGeometry>
        </mxCell>
        <mxCell id="rOO02G2cLJtOcCMyOPAY-6" style="edgeStyle=orthogonalEdgeStyle;shape=connector;rounded=0;orthogonalLoop=1;jettySize=auto;html=1;entryX=0.5;entryY=0;entryDx=0;entryDy=0;strokeColor=default;align=center;verticalAlign=middle;fontFamily=Helvetica;fontSize=11;fontColor=default;labelBackgroundColor=default;endArrow=classic;exitX=0.5;exitY=1;exitDx=0;exitDy=0;" parent="1" source="rOO02G2cLJtOcCMyOPAY-7" target="rOO02G2cLJtOcCMyOPAY-11" edge="1">
          <mxGeometry relative="1" as="geometry" />
        </mxCell>
        <mxCell id="rOO02G2cLJtOcCMyOPAY-7" value="Select unmatched loci (DNA sequence)" style="rounded=1;whiteSpace=wrap;html=1;absoluteArcSize=1;arcSize=14;strokeWidth=2;fillColor=#dae8fc;strokeColor=#6c8ebf;" parent="1" vertex="1">
          <mxGeometry x="172" y="70" width="100" height="100" as="geometry" />
        </mxCell>
        <mxCell id="e6oakoh6wWJwOmx6xRXs-12" style="edgeStyle=orthogonalEdgeStyle;rounded=0;orthogonalLoop=1;jettySize=auto;html=1;exitX=0.5;exitY=0.88;exitDx=0;exitDy=0;exitPerimeter=0;entryX=0.5;entryY=0;entryDx=0;entryDy=0;" parent="1" source="rOO02G2cLJtOcCMyOPAY-8" target="rOO02G2cLJtOcCMyOPAY-16" edge="1">
          <mxGeometry relative="1" as="geometry" />
        </mxCell>
        <mxCell id="rOO02G2cLJtOcCMyOPAY-8" value="BLASTp_&lt;div&gt;results&lt;/div&gt;" style="strokeWidth=2;html=1;shape=mxgraph.flowchart.multi-document;whiteSpace=wrap;fillColor=#f8cecc;strokeColor=#b85450;" parent="1" vertex="1">
          <mxGeometry x="-9" y="277.5" width="88" height="60" as="geometry" />
        </mxCell>
        <mxCell id="rOO02G2cLJtOcCMyOPAY-9" style="edgeStyle=orthogonalEdgeStyle;rounded=0;orthogonalLoop=1;jettySize=auto;html=1;exitX=0.5;exitY=1;exitDx=0;exitDy=0;entryX=0.5;entryY=0;entryDx=0;entryDy=0;entryPerimeter=0;" parent="1" source="0gzeqC3L0OKQvXUgxYPZ-1" target="rOO02G2cLJtOcCMyOPAY-8" edge="1">
          <mxGeometry relative="1" as="geometry">
            <mxPoint x="315" y="345" as="sourcePoint" />
          </mxGeometry>
        </mxCell>
        <mxCell id="rOO02G2cLJtOcCMyOPAY-11" value="Run BLASTn" style="rounded=1;whiteSpace=wrap;html=1;absoluteArcSize=1;arcSize=14;strokeWidth=2;fillColor=#dae8fc;strokeColor=#6c8ebf;" parent="1" vertex="1">
          <mxGeometry x="172" y="257.5" width="100" height="100" as="geometry" />
        </mxCell>
        <mxCell id="e6oakoh6wWJwOmx6xRXs-13" style="edgeStyle=orthogonalEdgeStyle;rounded=0;orthogonalLoop=1;jettySize=auto;html=1;exitX=0;exitY=0.5;exitDx=0;exitDy=0;exitPerimeter=0;entryX=1;entryY=0.5;entryDx=0;entryDy=0;" parent="1" source="rOO02G2cLJtOcCMyOPAY-12" target="rOO02G2cLJtOcCMyOPAY-16" edge="1">
          <mxGeometry relative="1" as="geometry" />
        </mxCell>
        <mxCell id="rOO02G2cLJtOcCMyOPAY-12" value="BLASTn_&lt;div&gt;results&lt;/div&gt;" style="strokeWidth=2;html=1;shape=mxgraph.flowchart.multi-document;whiteSpace=wrap;fillColor=#f8cecc;strokeColor=#b85450;" parent="1" vertex="1">
          <mxGeometry x="178" y="400" width="88" height="60" as="geometry" />
        </mxCell>
        <mxCell id="rOO02G2cLJtOcCMyOPAY-16" value="Process, extract and write results&amp;nbsp;" style="rounded=1;whiteSpace=wrap;html=1;absoluteArcSize=1;arcSize=14;strokeWidth=2;fillColor=#dae8fc;strokeColor=#6c8ebf;" parent="1" vertex="1">
          <mxGeometry x="-15" y="380" width="100" height="100" as="geometry" />
        </mxCell>
        <mxCell id="rOO02G2cLJtOcCMyOPAY-23" value="blast_by_cluster" style="strokeWidth=2;html=1;shape=mxgraph.flowchart.document2;whiteSpace=wrap;size=0.25;fillColor=#f8cecc;strokeColor=#b85450;" parent="1" vertex="1">
          <mxGeometry x="-280" y="515" width="120" height="60" as="geometry" />
        </mxCell>
        <mxCell id="rOO02G2cLJtOcCMyOPAY-24" value="blast_results_by_&lt;div&gt;class&lt;/div&gt;" style="strokeWidth=2;html=1;shape=mxgraph.flowchart.document2;whiteSpace=wrap;size=0.25;fillColor=#f8cecc;strokeColor=#b85450;" parent="1" vertex="1">
          <mxGeometry x="-280" y="595" width="120" height="60" as="geometry" />
        </mxCell>
        <mxCell id="rOO02G2cLJtOcCMyOPAY-25" value="blast_all_&lt;div&gt;matches.tsv&lt;/div&gt;" style="strokeWidth=2;html=1;shape=mxgraph.flowchart.document2;whiteSpace=wrap;size=0.25;fillColor=#f8cecc;strokeColor=#b85450;" parent="1" vertex="1">
          <mxGeometry x="-280" y="675" width="120" height="60" as="geometry" />
        </mxCell>
        <mxCell id="rOO02G2cLJtOcCMyOPAY-30" value="dropped_cds.tsv" style="strokeWidth=2;html=1;shape=mxgraph.flowchart.document2;whiteSpace=wrap;size=0.25;fillColor=#f8cecc;strokeColor=#b85450;" parent="1" vertex="1">
          <mxGeometry x="-280" y="760" width="120" height="60" as="geometry" />
        </mxCell>
        <mxCell id="rOO02G2cLJtOcCMyOPAY-32" value="drop_loci_reason.tsv" style="strokeWidth=2;html=1;shape=mxgraph.flowchart.document2;whiteSpace=wrap;size=0.25;fillColor=#d5e8d4;strokeColor=#82b366;" parent="1" vertex="1">
          <mxGeometry x="238.5" y="515" width="131.5" height="60" as="geometry" />
        </mxCell>
        <mxCell id="rOO02G2cLJtOcCMyOPAY-39" value="count_results_&lt;div&gt;by_cluster.tsv&lt;/div&gt;" style="strokeWidth=2;html=1;shape=mxgraph.flowchart.document2;whiteSpace=wrap;size=0.25;fillColor=#d5e8d4;strokeColor=#82b366;" parent="1" vertex="1">
          <mxGeometry x="238.5" y="595" width="131.5" height="60" as="geometry" />
        </mxCell>
        <mxCell id="rOO02G2cLJtOcCMyOPAY-40" value="related_matches.tsv" style="strokeWidth=2;html=1;shape=mxgraph.flowchart.document2;whiteSpace=wrap;size=0.25;fillColor=#d5e8d4;strokeColor=#82b366;" parent="1" vertex="1">
          <mxGeometry x="241.75" y="675" width="128.25" height="60" as="geometry" />
        </mxCell>
        <mxCell id="rOO02G2cLJtOcCMyOPAY-41" value="&lt;div&gt;&lt;span style=&quot;background-color: transparent; color: light-dark(rgb(0, 0, 0), rgb(255, 255, 255));&quot;&gt;recommendations.tsv&lt;/span&gt;&lt;/div&gt;" style="strokeWidth=2;html=1;shape=mxgraph.flowchart.document2;whiteSpace=wrap;size=0.25;fillColor=#d5e8d4;strokeColor=#82b366;" parent="1" vertex="1">
          <mxGeometry x="241.75" y="760" width="128.25" height="60" as="geometry" />
        </mxCell>
        <mxCell id="rOO02G2cLJtOcCMyOPAY-42" value="Annotation using consolidate" style="rounded=1;whiteSpace=wrap;html=1;absoluteArcSize=1;arcSize=14;strokeWidth=2;fillColor=#dae8fc;strokeColor=#6c8ebf;" parent="1" vertex="1">
          <mxGeometry x="255.88" y="857.5" width="100" height="100" as="geometry" />
        </mxCell>
        <mxCell id="rOO02G2cLJtOcCMyOPAY-43" value="&lt;div&gt;&lt;span style=&quot;background-color: transparent; color: light-dark(rgb(0, 0, 0), rgb(255, 255, 255));&quot;&gt;recommendations&lt;/span&gt;&lt;/div&gt;&lt;div&gt;&lt;span style=&quot;background-color: transparent; color: light-dark(rgb(0, 0, 0), rgb(255, 255, 255));&quot;&gt;_annotations.tsv&lt;/span&gt;&lt;/div&gt;" style="strokeWidth=2;html=1;shape=mxgraph.flowchart.document2;whiteSpace=wrap;size=0.25;fillColor=#d5e8d4;strokeColor=#82b366;" parent="1" vertex="1">
          <mxGeometry x="410" y="877.5" width="125" height="60" as="geometry" />
        </mxCell>
        <mxCell id="rOO02G2cLJtOcCMyOPAY-45" style="edgeStyle=orthogonalEdgeStyle;rounded=0;orthogonalLoop=1;jettySize=auto;html=1;entryX=0;entryY=0.5;entryDx=0;entryDy=0;" parent="1" source="rOO02G2cLJtOcCMyOPAY-46" target="rOO02G2cLJtOcCMyOPAY-42" edge="1">
          <mxGeometry relative="1" as="geometry">
            <mxPoint x="360.5" y="907.5" as="targetPoint" />
          </mxGeometry>
        </mxCell>
        <mxCell id="rOO02G2cLJtOcCMyOPAY-46" value="TSV annotation files" style="strokeWidth=2;html=1;shape=mxgraph.flowchart.document2;whiteSpace=wrap;size=0.25;fillColor=#E1D5E7;strokeColor=#9673A6;" parent="1" vertex="1">
          <mxGeometry x="85" y="875" width="100" height="65" as="geometry" />
        </mxCell>
        <mxCell id="rOO02G2cLJtOcCMyOPAY-47" style="edgeStyle=orthogonalEdgeStyle;rounded=0;orthogonalLoop=1;jettySize=auto;html=1;entryX=0.5;entryY=0;entryDx=0;entryDy=0;exitX=0.503;exitY=0.88;exitDx=0;exitDy=0;exitPerimeter=0;" parent="1" source="rOO02G2cLJtOcCMyOPAY-41" target="rOO02G2cLJtOcCMyOPAY-42" edge="1">
          <mxGeometry relative="1" as="geometry">
            <mxPoint x="-451" y="832.5" as="sourcePoint" />
            <mxPoint x="-537" y="722.5" as="targetPoint" />
          </mxGeometry>
        </mxCell>
        <mxCell id="rOO02G2cLJtOcCMyOPAY-53" style="edgeStyle=orthogonalEdgeStyle;shape=connector;rounded=0;orthogonalLoop=1;jettySize=auto;html=1;entryX=0.5;entryY=0;entryDx=0;entryDy=0;entryPerimeter=0;strokeColor=default;align=center;verticalAlign=middle;fontFamily=Helvetica;fontSize=11;fontColor=default;labelBackgroundColor=default;endArrow=classic;exitX=0.5;exitY=1;exitDx=0;exitDy=0;" parent="1" source="rOO02G2cLJtOcCMyOPAY-11" target="rOO02G2cLJtOcCMyOPAY-12" edge="1">
          <mxGeometry relative="1" as="geometry" />
        </mxCell>
        <mxCell id="e6oakoh6wWJwOmx6xRXs-6" value="" style="whiteSpace=wrap;html=1;shadow=0;fillColor=none;strokeColor=#A9C4EB;" parent="1" vertex="1">
          <mxGeometry x="-470" y="20" width="150" height="380" as="geometry" />
        </mxCell>
        <mxCell id="e6oakoh6wWJwOmx6xRXs-7" value="" style="whiteSpace=wrap;html=1;shadow=0;fillColor=none;strokeColor=#EA6B66;" parent="1" vertex="1">
          <mxGeometry x="-480" y="220" width="150" height="160" as="geometry" />
        </mxCell>
        <mxCell id="e6oakoh6wWJwOmx6xRXs-14" style="edgeStyle=orthogonalEdgeStyle;rounded=0;orthogonalLoop=1;jettySize=auto;html=1;entryX=1;entryY=0.5;entryDx=0;entryDy=0;entryPerimeter=0;exitX=0.25;exitY=1;exitDx=0;exitDy=0;" parent="1" target="rOO02G2cLJtOcCMyOPAY-23" edge="1">
          <mxGeometry relative="1" as="geometry">
            <mxPoint x="10" y="490" as="sourcePoint" />
            <mxPoint x="-160" y="555" as="targetPoint" />
            <Array as="points">
              <mxPoint x="10" y="670" />
              <mxPoint x="-80" y="670" />
              <mxPoint x="-80" y="545" />
            </Array>
          </mxGeometry>
        </mxCell>
        <mxCell id="e6oakoh6wWJwOmx6xRXs-15" style="edgeStyle=orthogonalEdgeStyle;rounded=0;orthogonalLoop=1;jettySize=auto;html=1;entryX=1;entryY=0.5;entryDx=0;entryDy=0;entryPerimeter=0;exitX=0.25;exitY=1;exitDx=0;exitDy=0;" parent="1" source="rOO02G2cLJtOcCMyOPAY-16" target="rOO02G2cLJtOcCMyOPAY-24" edge="1">
          <mxGeometry relative="1" as="geometry">
            <Array as="points">
              <mxPoint x="10" y="670" />
              <mxPoint x="-80" y="670" />
              <mxPoint x="-80" y="625" />
            </Array>
          </mxGeometry>
        </mxCell>
        <mxCell id="e6oakoh6wWJwOmx6xRXs-16" style="edgeStyle=orthogonalEdgeStyle;rounded=0;orthogonalLoop=1;jettySize=auto;html=1;exitX=0.25;exitY=1;exitDx=0;exitDy=0;entryX=1;entryY=0.5;entryDx=0;entryDy=0;entryPerimeter=0;" parent="1" source="rOO02G2cLJtOcCMyOPAY-16" target="rOO02G2cLJtOcCMyOPAY-25" edge="1">
          <mxGeometry relative="1" as="geometry">
            <Array as="points">
              <mxPoint x="10" y="670" />
              <mxPoint x="-80" y="670" />
              <mxPoint x="-80" y="705" />
            </Array>
          </mxGeometry>
        </mxCell>
        <mxCell id="e6oakoh6wWJwOmx6xRXs-17" style="edgeStyle=orthogonalEdgeStyle;rounded=0;orthogonalLoop=1;jettySize=auto;html=1;exitX=0.25;exitY=1;exitDx=0;exitDy=0;entryX=1;entryY=0.5;entryDx=0;entryDy=0;entryPerimeter=0;" parent="1" source="rOO02G2cLJtOcCMyOPAY-16" target="rOO02G2cLJtOcCMyOPAY-30" edge="1">
          <mxGeometry relative="1" as="geometry">
            <Array as="points">
              <mxPoint x="10" y="670" />
              <mxPoint x="-80" y="670" />
              <mxPoint x="-80" y="790" />
            </Array>
          </mxGeometry>
        </mxCell>
        <mxCell id="e6oakoh6wWJwOmx6xRXs-18" style="edgeStyle=orthogonalEdgeStyle;rounded=0;orthogonalLoop=1;jettySize=auto;html=1;exitX=0.75;exitY=1;exitDx=0;exitDy=0;entryX=0;entryY=0.5;entryDx=0;entryDy=0;entryPerimeter=0;" parent="1" source="rOO02G2cLJtOcCMyOPAY-16" target="rOO02G2cLJtOcCMyOPAY-32" edge="1">
          <mxGeometry relative="1" as="geometry">
            <Array as="points">
              <mxPoint x="60" y="670" />
              <mxPoint x="160" y="670" />
              <mxPoint x="160" y="545" />
            </Array>
          </mxGeometry>
        </mxCell>
        <mxCell id="e6oakoh6wWJwOmx6xRXs-19" style="edgeStyle=orthogonalEdgeStyle;rounded=0;orthogonalLoop=1;jettySize=auto;html=1;exitX=0.75;exitY=1;exitDx=0;exitDy=0;entryX=0;entryY=0.5;entryDx=0;entryDy=0;entryPerimeter=0;" parent="1" source="rOO02G2cLJtOcCMyOPAY-16" target="rOO02G2cLJtOcCMyOPAY-39" edge="1">
          <mxGeometry relative="1" as="geometry">
            <Array as="points">
              <mxPoint x="60" y="670" />
              <mxPoint x="160" y="670" />
              <mxPoint x="160" y="625" />
            </Array>
          </mxGeometry>
        </mxCell>
        <mxCell id="e6oakoh6wWJwOmx6xRXs-20" style="edgeStyle=orthogonalEdgeStyle;rounded=0;orthogonalLoop=1;jettySize=auto;html=1;exitX=0.75;exitY=1;exitDx=0;exitDy=0;entryX=0;entryY=0.5;entryDx=0;entryDy=0;entryPerimeter=0;" parent="1" source="rOO02G2cLJtOcCMyOPAY-16" target="rOO02G2cLJtOcCMyOPAY-40" edge="1">
          <mxGeometry relative="1" as="geometry">
            <Array as="points">
              <mxPoint x="60" y="670" />
              <mxPoint x="160" y="670" />
              <mxPoint x="160" y="705" />
            </Array>
          </mxGeometry>
        </mxCell>
        <mxCell id="e6oakoh6wWJwOmx6xRXs-21" style="edgeStyle=orthogonalEdgeStyle;rounded=0;orthogonalLoop=1;jettySize=auto;html=1;exitX=0.75;exitY=1;exitDx=0;exitDy=0;entryX=0;entryY=0.5;entryDx=0;entryDy=0;entryPerimeter=0;" parent="1" source="rOO02G2cLJtOcCMyOPAY-16" target="rOO02G2cLJtOcCMyOPAY-41" edge="1">
          <mxGeometry relative="1" as="geometry">
            <Array as="points">
              <mxPoint x="60" y="670" />
              <mxPoint x="160" y="670" />
              <mxPoint x="160" y="790" />
            </Array>
          </mxGeometry>
        </mxCell>
        <mxCell id="e6oakoh6wWJwOmx6xRXs-22" style="edgeStyle=orthogonalEdgeStyle;rounded=0;orthogonalLoop=1;jettySize=auto;html=1;exitX=1;exitY=0.5;exitDx=0;exitDy=0;entryX=0;entryY=0.5;entryDx=0;entryDy=0;entryPerimeter=0;" parent="1" source="rOO02G2cLJtOcCMyOPAY-42" target="rOO02G2cLJtOcCMyOPAY-43" edge="1">
          <mxGeometry relative="1" as="geometry" />
        </mxCell>
      </root>
    </mxGraphModel>
  </diagram>
</mxfile>
